<mxfile host="app.diagrams.net" agent="Mozilla/5.0 (Windows NT 10.0; Win64; x64) AppleWebKit/537.36 (KHTML, like Gecko) Chrome/132.0.0.0 Safari/537.36" version="25.0.3">
  <diagram name="Page-1" id="bfe91b75-5d2c-26a0-9c1d-138518896778">
    <mxGraphModel dx="1290" dy="618" grid="1" gridSize="10" guides="1" tooltips="1" connect="1" arrows="1" fold="1" page="1" pageScale="1" pageWidth="1100" pageHeight="850" background="none" math="0" shadow="0">
      <root>
        <mxCell id="0" />
        <mxCell id="1" parent="0" />
        <mxCell id="7c3789c024ecab99-82" value="Middleton" style="rounded=1;whiteSpace=wrap;html=1;shadow=0;comic=0;strokeColor=#036897;strokeWidth=2;fillColor=none;fontFamily=Verdana;fontSize=28;fontColor=#6881B3;align=center;arcSize=11;verticalAlign=top;" parent="1" vertex="1">
          <mxGeometry x="40" y="320" width="522" height="285" as="geometry" />
        </mxCell>
        <mxCell id="7c3789c024ecab99-81" value="Suzhou" style="rounded=1;whiteSpace=wrap;html=1;shadow=0;comic=0;strokeColor=#036897;strokeWidth=2;fillColor=none;fontFamily=Verdana;fontSize=28;fontColor=#6881B3;align=center;arcSize=11;verticalAlign=top;" parent="1" vertex="1">
          <mxGeometry x="1758.5" y="760" width="405" height="320" as="geometry" />
        </mxCell>
        <mxCell id="7c3789c024ecab99-79" value="Shanghai" style="rounded=1;whiteSpace=wrap;html=1;shadow=0;comic=0;strokeColor=#036897;strokeWidth=2;fillColor=none;fontFamily=Verdana;fontSize=28;fontColor=#6881B3;align=center;arcSize=11;verticalAlign=top;" parent="1" vertex="1">
          <mxGeometry x="1761.5" y="320" width="402" height="320" as="geometry" />
        </mxCell>
        <mxCell id="7c3789c024ecab99-10" value="&lt;font style=&quot;font-size: 18px;&quot;&gt;Versa&lt;/font&gt;" style="fontColor=#0066CC;verticalAlign=top;verticalLabelPosition=bottom;labelPosition=center;align=center;html=1;fillColor=#CCCCCC;strokeColor=#6881B3;gradientColor=none;gradientDirection=north;strokeWidth=2;shape=mxgraph.networks.router;rounded=0;shadow=0;comic=0;" parent="1" vertex="1">
          <mxGeometry x="1793" y="855" width="100" height="30" as="geometry" />
        </mxCell>
        <mxCell id="7c3789c024ecab99-53" value="&lt;span style=&quot;color: rgba(0, 0, 0, 0); font-family: monospace; font-size: 0px; text-align: start;&quot;&gt;%3CmxGraphModel%3E%3Croot%3E%3CmxCell%20id%3D%220%22%2F%3E%3CmxCell%20id%3D%221%22%20parent%3D%220%22%2F%3E%3CmxCell%20id%3D%222%22%20value%3D%22%26lt%3Bfont%20style%3D%26quot%3Bfont-size%3A%2018px%3B%26quot%3B%26gt%3B%26lt%3Bfont%20style%3D%26quot%3Bforced-color-adjust%3A%20none%3B%20color%3A%20rgb(104%2C%20129%2C%20179)%3B%20font-family%3A%20Helvetica%3B%20font-style%3A%20normal%3B%20font-variant-ligatures%3A%20normal%3B%20font-variant-caps%3A%20normal%3B%20font-weight%3A%20400%3B%20letter-spacing%3A%20normal%3B%20orphans%3A%202%3B%20text-indent%3A%200px%3B%20text-transform%3A%20none%3B%20widows%3A%202%3B%20word-spacing%3A%200px%3B%20-webkit-text-stroke-width%3A%200px%3B%20white-space%3A%20nowrap%3B%20text-decoration-thickness%3A%20initial%3B%20text-decoration-style%3A%20initial%3B%20text-decoration-color%3A%20initial%3B%26quot%3B%26gt%3BInternet%26amp%3Bnbsp%3B%26lt%3B%2Ffont%26gt%3B%26lt%3Bspan%20style%3D%26quot%3Bforced-color-adjust%3A%20none%3B%20color%3A%20light-dark(rgb(104%2C%20129%2C%20179)%2C%20rgb(107%2C%20129%2C%20172))%3B%20font-family%3A%20Helvetica%3B%20font-style%3A%20normal%3B%20font-variant-ligatures%3A%20normal%3B%20font-variant-caps%3A%20normal%3B%20font-weight%3A%20400%3B%20letter-spacing%3A%20normal%3B%20orphans%3A%202%3B%20text-indent%3A%200px%3B%20text-transform%3A%20none%3B%20widows%3A%202%3B%20word-spacing%3A%200px%3B%20-webkit-text-stroke-width%3A%200px%3B%20white-space%3A%20nowrap%3B%20text-decoration-thickness%3A%20initial%3B%20text-decoration-style%3A%20initial%3B%20text-decoration-color%3A%20initial%3B%26quot%3B%26gt%3BUnderlay%26lt%3Bbr%20style%3D%26quot%3Bforced-color-adjust%3A%20none%3B%26quot%3B%26gt%3B%26lt%3B%2Fspan%26gt%3B%26lt%3Bspan%20style%3D%26quot%3Bforced-color-adjust%3A%20none%3B%20color%3A%20light-dark(rgb(104%2C%20129%2C%20179)%2C%20rgb(107%2C%20129%2C%20172))%3B%20font-family%3A%20Helvetica%3B%20font-style%3A%20normal%3B%20font-variant-ligatures%3A%20normal%3B%20font-variant-caps%3A%20normal%3B%20font-weight%3A%20400%3B%20letter-spacing%3A%20normal%3B%20orphans%3A%202%3B%20text-indent%3A%200px%3B%20text-transform%3A%20none%3B%20widows%3A%202%3B%20word-spacing%3A%200px%3B%20-webkit-text-stroke-width%3A%200px%3B%20white-space%3A%20nowrap%3B%20text-decoration-thickness%3A%20initial%3B%20text-decoration-style%3A%20initial%3B%20text-decoration-color%3A%20initial%3B%26quot%3B%26gt%3B500%20m%2Fs%26lt%3B%2Fspan%26gt%3B%26lt%3B%2Ffont%26gt%3B%22%20style%3D%22text%3BwhiteSpace%3Dwrap%3Bhtml%3D1%3Balign%3Dcenter%3B%22%20vertex%3D%221%22%20parent%3D%221%22%3E%3CmxGeometry%20x%3D%221490%22%20y%3D%22830%22%20width%3D%22160%22%20height%3D%2260%22%20as%3D%22geometry%22%2F%3E%3C%2FmxCell%3E%3C%2Froot%3E%3C%2FmxGraphModel%3E&lt;/span&gt;" style="html=1;fillColor=#CCCCCC;strokeColor=#6881B3;gradientColor=none;gradientDirection=north;strokeWidth=2;shape=mxgraph.networks.cloud;fontColor=#6881B3;rounded=0;shadow=0;comic=0;align=center;fontSize=28;" parent="1" vertex="1">
          <mxGeometry x="570" y="387.5" width="240" height="110" as="geometry" />
        </mxCell>
        <mxCell id="7c3789c024ecab99-60" style="edgeStyle=none;html=1;labelBackgroundColor=none;endArrow=none;endFill=0;strokeWidth=2;fontFamily=Verdana;fontSize=28;fontColor=#6881B3;entryX=0.529;entryY=0.982;entryDx=0;entryDy=0;entryPerimeter=0;exitX=0.5;exitY=0;exitDx=0;exitDy=0;exitPerimeter=0;" parent="1" source="7c3789c024ecab99-57" target="7pducZbgJA7FLwBWW6aa-7" edge="1">
          <mxGeometry relative="1" as="geometry">
            <mxPoint x="1170" y="1568" as="targetPoint" />
          </mxGeometry>
        </mxCell>
        <mxCell id="7c3789c024ecab99-57" value="&lt;font style=&quot;font-size: 24px;&quot;&gt;Office 365, etc.&lt;/font&gt;" style="fontColor=#0066CC;verticalAlign=top;verticalLabelPosition=bottom;labelPosition=center;align=center;html=1;fillColor=#CCCCCC;strokeColor=#6881B3;gradientColor=none;gradientDirection=north;strokeWidth=2;shape=mxgraph.networks.storage;rounded=0;shadow=0;comic=0;" parent="1" vertex="1">
          <mxGeometry x="1110" y="1110" width="100" height="100" as="geometry" />
        </mxCell>
        <mxCell id="7c3789c024ecab99-58" value="" style="fontColor=#0066CC;verticalAlign=top;verticalLabelPosition=bottom;labelPosition=center;align=center;html=1;fillColor=#CCCCCC;strokeColor=#6881B3;gradientColor=none;gradientDirection=north;strokeWidth=2;shape=mxgraph.networks.server_storage;rounded=0;shadow=0;comic=0;" parent="1" vertex="1">
          <mxGeometry x="141" y="407.5" width="105" height="105" as="geometry" />
        </mxCell>
        <mxCell id="7c3789c024ecab99-76" value="CTL SD-WAN" style="html=1;fillColor=#CCCCCC;strokeColor=#CCCCCC;gradientColor=none;gradientDirection=north;strokeWidth=2;shape=mxgraph.networks.cloud;fontColor=#6881B3;rounded=0;shadow=0;comic=0;align=center;fontSize=28;" parent="1" vertex="1">
          <mxGeometry x="550" y="360" width="1180" height="470" as="geometry" />
        </mxCell>
        <mxCell id="7pducZbgJA7FLwBWW6aa-1" value="&lt;p&gt;&lt;br&gt;&lt;/p&gt;" style="html=1;fillColor=#CCCCCC;strokeColor=#6881B3;gradientColor=none;gradientDirection=north;strokeWidth=2;shape=mxgraph.networks.cloud;fontColor=#6881B3;rounded=0;shadow=0;comic=0;align=center;fontSize=28;" parent="1" vertex="1">
          <mxGeometry x="1450" y="370" width="240" height="110" as="geometry" />
        </mxCell>
        <mxCell id="7pducZbgJA7FLwBWW6aa-2" value="&lt;font style=&quot;font-size: 18px;&quot;&gt;Versa&lt;/font&gt;" style="fontColor=#0066CC;verticalAlign=top;verticalLabelPosition=bottom;labelPosition=center;align=center;html=1;fillColor=#CCCCCC;strokeColor=#6881B3;gradientColor=none;gradientDirection=north;strokeWidth=2;shape=mxgraph.networks.router;rounded=0;shadow=0;comic=0;" parent="1" vertex="1">
          <mxGeometry x="1793" y="427.5" width="100" height="30" as="geometry" />
        </mxCell>
        <mxCell id="7pducZbgJA7FLwBWW6aa-3" value="&lt;font style=&quot;font-size: 18px;&quot;&gt;PAN&lt;/font&gt;" style="fontColor=#0066CC;verticalAlign=top;verticalLabelPosition=bottom;labelPosition=center;align=center;html=1;fillColor=#CCCCCC;strokeColor=#6881B3;gradientColor=none;gradientDirection=north;strokeWidth=2;shape=mxgraph.networks.firewall;rounded=0;shadow=0;comic=0;" parent="1" vertex="1">
          <mxGeometry x="2006.5" y="400" width="100" height="100" as="geometry" />
        </mxCell>
        <mxCell id="7pducZbgJA7FLwBWW6aa-4" value="&lt;font style=&quot;font-size: 18px;&quot;&gt;PAN&lt;/font&gt;" style="fontColor=#0066CC;verticalAlign=top;verticalLabelPosition=bottom;labelPosition=center;align=center;html=1;fillColor=#CCCCCC;strokeColor=#6881B3;gradientColor=none;gradientDirection=north;strokeWidth=2;shape=mxgraph.networks.firewall;rounded=0;shadow=0;comic=0;" parent="1" vertex="1">
          <mxGeometry x="2005" y="830" width="100" height="100" as="geometry" />
        </mxCell>
        <mxCell id="7pducZbgJA7FLwBWW6aa-5" value="&lt;font style=&quot;font-size: 18px;&quot;&gt;PAN&lt;/font&gt;" style="fontColor=#0066CC;verticalAlign=top;verticalLabelPosition=bottom;labelPosition=center;align=center;html=1;fillColor=#CCCCCC;strokeColor=#6881B3;gradientColor=none;gradientDirection=north;strokeWidth=2;shape=mxgraph.networks.firewall;rounded=0;shadow=0;comic=0;" parent="1" vertex="1">
          <mxGeometry x="420" y="412.5" width="100" height="100" as="geometry" />
        </mxCell>
        <mxCell id="7pducZbgJA7FLwBWW6aa-6" value="" style="html=1;fillColor=#CCCCCC;strokeColor=#6881B3;gradientColor=none;gradientDirection=north;strokeWidth=2;shape=mxgraph.networks.cloud;fontColor=#6881B3;rounded=0;shadow=0;comic=0;align=center;fontSize=28;" parent="1" vertex="1">
          <mxGeometry x="1450" y="790" width="240" height="110" as="geometry" />
        </mxCell>
        <mxCell id="7pducZbgJA7FLwBWW6aa-7" value="" style="html=1;fillColor=#CCCCCC;strokeColor=#6881B3;gradientColor=none;gradientDirection=north;strokeWidth=2;shape=mxgraph.networks.cloud;fontColor=#6881B3;rounded=0;shadow=0;comic=0;align=center;fontSize=28;" parent="1" vertex="1">
          <mxGeometry x="1030" y="950" width="240" height="110" as="geometry" />
        </mxCell>
        <mxCell id="7pducZbgJA7FLwBWW6aa-8" value="&lt;font style=&quot;font-size: 18px;&quot;&gt;&lt;b&gt;&lt;font style=&quot;forced-color-adjust: none; color: rgb(104, 129, 179); font-family: Helvetica; font-style: normal; font-variant-ligatures: normal; font-variant-caps: normal; letter-spacing: normal; orphans: 2; text-indent: 0px; text-transform: none; widows: 2; word-spacing: 0px; -webkit-text-stroke-width: 0px; white-space: nowrap; text-decoration-thickness: initial; text-decoration-style: initial; text-decoration-color: initial;&quot;&gt;Internet&amp;nbsp;&lt;/font&gt;&lt;span style=&quot;forced-color-adjust: none; color: light-dark(rgb(104, 129, 179), rgb(107, 129, 172)); font-family: Helvetica; font-style: normal; font-variant-ligatures: normal; font-variant-caps: normal; letter-spacing: normal; orphans: 2; text-indent: 0px; text-transform: none; widows: 2; word-spacing: 0px; -webkit-text-stroke-width: 0px; white-space: nowrap; text-decoration-thickness: initial; text-decoration-style: initial; text-decoration-color: initial;&quot;&gt;Underlay&lt;br style=&quot;forced-color-adjust: none;&quot;&gt;&lt;/span&gt;&lt;span style=&quot;forced-color-adjust: none; color: light-dark(rgb(104, 129, 179), rgb(107, 129, 172)); font-family: Helvetica; font-style: normal; font-variant-ligatures: normal; font-variant-caps: normal; letter-spacing: normal; orphans: 2; text-indent: 0px; text-transform: none; widows: 2; word-spacing: 0px; -webkit-text-stroke-width: 0px; white-space: nowrap; text-decoration-thickness: initial; text-decoration-style: initial; text-decoration-color: initial;&quot;&gt;200 mb/s&lt;/span&gt;&lt;/b&gt;&lt;/font&gt;" style="text;whiteSpace=wrap;html=1;align=center;" parent="1" vertex="1">
          <mxGeometry x="1490" y="830" width="160" height="60" as="geometry" />
        </mxCell>
        <mxCell id="7pducZbgJA7FLwBWW6aa-16" value="&lt;font style=&quot;font-size: 18px;&quot;&gt;&lt;b&gt;&lt;font style=&quot;forced-color-adjust: none; color: rgb(104, 129, 179); font-family: Helvetica; font-style: normal; font-variant-ligatures: normal; font-variant-caps: normal; letter-spacing: normal; orphans: 2; text-indent: 0px; text-transform: none; widows: 2; word-spacing: 0px; -webkit-text-stroke-width: 0px; white-space: nowrap; text-decoration-thickness: initial; text-decoration-style: initial; text-decoration-color: initial;&quot;&gt;Internet&amp;nbsp;&lt;/font&gt;&lt;span style=&quot;forced-color-adjust: none; color: light-dark(rgb(104, 129, 179), rgb(107, 129, 172)); font-family: Helvetica; font-style: normal; font-variant-ligatures: normal; font-variant-caps: normal; letter-spacing: normal; orphans: 2; text-indent: 0px; text-transform: none; widows: 2; word-spacing: 0px; -webkit-text-stroke-width: 0px; white-space: nowrap; text-decoration-thickness: initial; text-decoration-style: initial; text-decoration-color: initial;&quot;&gt;Underlay&lt;br style=&quot;forced-color-adjust: none;&quot;&gt;&lt;/span&gt;&lt;span style=&quot;forced-color-adjust: none; color: light-dark(rgb(104, 129, 179), rgb(107, 129, 172)); font-family: Helvetica; font-style: normal; font-variant-ligatures: normal; font-variant-caps: normal; letter-spacing: normal; orphans: 2; text-indent: 0px; text-transform: none; widows: 2; word-spacing: 0px; -webkit-text-stroke-width: 0px; white-space: nowrap; text-decoration-thickness: initial; text-decoration-style: initial; text-decoration-color: initial;&quot;&gt;200 mb/s&lt;/span&gt;&lt;/b&gt;&lt;/font&gt;" style="text;whiteSpace=wrap;html=1;align=center;" parent="1" vertex="1">
          <mxGeometry x="1490" y="412.5" width="160" height="60" as="geometry" />
        </mxCell>
        <mxCell id="7pducZbgJA7FLwBWW6aa-17" value="&lt;font style=&quot;font-size: 18px;&quot;&gt;&lt;font style=&quot;forced-color-adjust: none; color: rgb(104, 129, 179); font-family: Helvetica; font-style: normal; font-variant-ligatures: normal; font-variant-caps: normal; font-weight: 400; letter-spacing: normal; orphans: 2; text-indent: 0px; text-transform: none; widows: 2; word-spacing: 0px; -webkit-text-stroke-width: 0px; white-space: nowrap; text-decoration-thickness: initial; text-decoration-style: initial; text-decoration-color: initial;&quot;&gt;Internet&amp;nbsp;&lt;/font&gt;&lt;span style=&quot;forced-color-adjust: none; color: light-dark(rgb(104, 129, 179), rgb(107, 129, 172)); font-family: Helvetica; font-style: normal; font-variant-ligatures: normal; font-variant-caps: normal; font-weight: 400; letter-spacing: normal; orphans: 2; text-indent: 0px; text-transform: none; widows: 2; word-spacing: 0px; -webkit-text-stroke-width: 0px; white-space: nowrap; text-decoration-thickness: initial; text-decoration-style: initial; text-decoration-color: initial;&quot;&gt;Underlay&lt;/span&gt;&lt;br&gt;&lt;/font&gt;" style="text;whiteSpace=wrap;html=1;align=center;" parent="1" vertex="1">
          <mxGeometry x="610" y="420" width="160" height="60" as="geometry" />
        </mxCell>
        <mxCell id="7pducZbgJA7FLwBWW6aa-18" value="&lt;font style=&quot;font-size: 24px;&quot;&gt;Hong Kong&lt;/font&gt;" style="fontColor=#0066CC;verticalAlign=top;verticalLabelPosition=bottom;labelPosition=center;align=center;html=1;fillColor=#CCCCCC;strokeColor=#6881B3;gradientColor=none;gradientDirection=north;strokeWidth=2;shape=mxgraph.networks.router;rounded=0;shadow=0;comic=0;" parent="1" vertex="1">
          <mxGeometry x="1100" y="750" width="100" height="30" as="geometry" />
        </mxCell>
        <mxCell id="7pducZbgJA7FLwBWW6aa-19" value="&lt;font style=&quot;font-size: 24px;&quot;&gt;Chicago&lt;/font&gt;" style="fontColor=#0066CC;verticalAlign=top;verticalLabelPosition=bottom;labelPosition=center;align=center;html=1;fillColor=#CCCCCC;strokeColor=#6881B3;gradientColor=none;gradientDirection=north;strokeWidth=2;shape=mxgraph.networks.router;rounded=0;shadow=0;comic=0;" parent="1" vertex="1">
          <mxGeometry x="820" y="512.5" width="100" height="30" as="geometry" />
        </mxCell>
        <mxCell id="7c3789c024ecab99-56" style="edgeStyle=none;html=1;labelBackgroundColor=none;endArrow=none;endFill=0;strokeWidth=2;fontFamily=Verdana;fontSize=28;fontColor=#6881B3;entryX=0.52;entryY=0.767;entryDx=0;entryDy=0;entryPerimeter=0;exitX=0.5;exitY=0.08;exitDx=0;exitDy=0;exitPerimeter=0;" parent="1" source="7pducZbgJA7FLwBWW6aa-7" target="7pducZbgJA7FLwBWW6aa-18" edge="1">
          <mxGeometry relative="1" as="geometry">
            <mxPoint x="1332.5806451612907" y="1480" as="sourcePoint" />
            <mxPoint x="1450" y="1340" as="targetPoint" />
          </mxGeometry>
        </mxCell>
        <mxCell id="7c3789c024ecab99-18" style="edgeStyle=orthogonalEdgeStyle;html=1;labelBackgroundColor=none;endArrow=none;endFill=0;strokeWidth=2;fontFamily=Verdana;fontSize=15;fontColor=#036897;entryX=0.5;entryY=0;entryDx=0;entryDy=0;entryPerimeter=0;" parent="1" target="7pducZbgJA7FLwBWW6aa-19" edge="1">
          <mxGeometry relative="1" as="geometry">
            <mxPoint x="760" y="920" as="targetPoint" />
            <Array as="points">
              <mxPoint x="870" y="470" />
            </Array>
            <mxPoint x="520" y="470" as="sourcePoint" />
          </mxGeometry>
        </mxCell>
        <mxCell id="7c3789c024ecab99-50" style="edgeStyle=orthogonalEdgeStyle;html=1;labelBackgroundColor=none;endArrow=none;endFill=0;strokeWidth=2;fontFamily=Verdana;fontSize=15;fontColor=#036897;entryX=0.568;entryY=0.511;entryDx=0;entryDy=0;entryPerimeter=0;exitX=0;exitY=0.5;exitDx=0;exitDy=0;exitPerimeter=0;" parent="1" source="7c3789c024ecab99-10" edge="1">
          <mxGeometry relative="1" as="geometry">
            <mxPoint x="1227.2399999999998" y="595.1700000000001" as="targetPoint" />
            <mxPoint x="1800" y="855" as="sourcePoint" />
            <Array as="points">
              <mxPoint x="1657" y="870" />
              <mxPoint x="1657" y="880" />
              <mxPoint x="1487" y="880" />
              <mxPoint x="1487" y="595" />
            </Array>
          </mxGeometry>
        </mxCell>
        <mxCell id="7c3789c024ecab99-51" style="edgeStyle=orthogonalEdgeStyle;html=1;labelBackgroundColor=none;endArrow=none;endFill=0;strokeWidth=2;fontFamily=Verdana;fontSize=15;fontColor=#036897;exitX=0.508;exitY=0.468;exitDx=0;exitDy=0;exitPerimeter=0;" parent="1" source="7c3789c024ecab99-76" edge="1">
          <mxGeometry relative="1" as="geometry">
            <mxPoint x="1790" y="442" as="targetPoint" />
            <Array as="points">
              <mxPoint x="1149" y="470" />
              <mxPoint x="1720" y="470" />
              <mxPoint x="1720" y="442" />
            </Array>
            <mxPoint x="1340" y="960" as="sourcePoint" />
          </mxGeometry>
        </mxCell>
        <mxCell id="7pducZbgJA7FLwBWW6aa-20" value="&lt;font style=&quot;font-size: 18px;&quot;&gt;&lt;span style=&quot;forced-color-adjust: none; color: light-dark(rgb(104, 129, 179), rgb(107, 129, 172)); font-family: Helvetica; font-style: normal; font-variant-ligatures: normal; font-variant-caps: normal; letter-spacing: normal; orphans: 2; text-indent: 0px; text-transform: none; widows: 2; word-spacing: 0px; -webkit-text-stroke-width: 0px; white-space: nowrap; text-decoration-thickness: initial; text-decoration-style: initial; text-decoration-color: initial;&quot;&gt;&lt;b&gt;10 mb/s&lt;/b&gt;&lt;/span&gt;&lt;/font&gt;" style="text;whiteSpace=wrap;html=1;align=center;" parent="1" vertex="1">
          <mxGeometry x="850" y="472.5" width="130" height="40" as="geometry" />
        </mxCell>
        <mxCell id="7pducZbgJA7FLwBWW6aa-21" value="&lt;font style=&quot;font-size: 18px;&quot;&gt;&lt;span style=&quot;forced-color-adjust: none; color: light-dark(rgb(104, 129, 179), rgb(107, 129, 172)); font-family: Helvetica; font-style: normal; font-variant-ligatures: normal; font-variant-caps: normal; letter-spacing: normal; orphans: 2; text-indent: 0px; text-transform: none; widows: 2; word-spacing: 0px; -webkit-text-stroke-width: 0px; white-space: nowrap; text-decoration-thickness: initial; text-decoration-style: initial; text-decoration-color: initial;&quot;&gt;&lt;b&gt;100 mb/s&lt;/b&gt;&lt;/span&gt;&lt;/font&gt;" style="text;whiteSpace=wrap;html=1;align=center;" parent="1" vertex="1">
          <mxGeometry x="1080" y="710" width="160" height="40" as="geometry" />
        </mxCell>
        <mxCell id="7c3789c024ecab99-75" style="edgeStyle=orthogonalEdgeStyle;html=1;labelBackgroundColor=none;endArrow=none;endFill=0;strokeWidth=2;fontFamily=Verdana;fontSize=28;fontColor=#6881B3;entryX=0.475;entryY=0.511;entryDx=0;entryDy=0;entryPerimeter=0;exitX=0.25;exitY=1;exitDx=0;exitDy=0;" parent="1" source="7pducZbgJA7FLwBWW6aa-21" target="7c3789c024ecab99-76" edge="1">
          <mxGeometry relative="1" as="geometry">
            <mxPoint x="1082" y="789" as="targetPoint" />
            <Array as="points">
              <mxPoint x="1120" y="700" />
              <mxPoint x="1111" y="700" />
            </Array>
            <mxPoint x="1102" y="869" as="sourcePoint" />
          </mxGeometry>
        </mxCell>
        <mxCell id="7pducZbgJA7FLwBWW6aa-23" style="edgeStyle=orthogonalEdgeStyle;html=1;labelBackgroundColor=none;endArrow=none;endFill=0;strokeWidth=2;fontFamily=Verdana;fontSize=28;fontColor=#6881B3;exitX=1;exitY=0.5;exitDx=0;exitDy=0;exitPerimeter=0;entryX=0.432;entryY=0.511;entryDx=0;entryDy=0;entryPerimeter=0;" parent="1" source="7pducZbgJA7FLwBWW6aa-19" target="7c3789c024ecab99-76" edge="1">
          <mxGeometry relative="1" as="geometry">
            <mxPoint x="560" y="1002.5" as="targetPoint" />
            <Array as="points">
              <mxPoint x="950" y="528" />
              <mxPoint x="950" y="595" />
              <mxPoint x="1060" y="595" />
            </Array>
            <mxPoint x="740" y="630" as="sourcePoint" />
          </mxGeometry>
        </mxCell>
        <mxCell id="7pducZbgJA7FLwBWW6aa-25" value="" style="fontColor=#0066CC;verticalAlign=top;verticalLabelPosition=bottom;labelPosition=center;align=center;html=1;outlineConnect=0;fillColor=#CCCCCC;strokeColor=#6881B3;gradientColor=none;gradientDirection=north;strokeWidth=2;shape=mxgraph.networks.laptop;" parent="1" vertex="1">
          <mxGeometry x="1920" y="991" width="100" height="55" as="geometry" />
        </mxCell>
        <mxCell id="7pducZbgJA7FLwBWW6aa-26" value="" style="fontColor=#0066CC;verticalAlign=top;verticalLabelPosition=bottom;labelPosition=center;align=center;html=1;outlineConnect=0;fillColor=#CCCCCC;strokeColor=#6881B3;gradientColor=none;gradientDirection=north;strokeWidth=2;shape=mxgraph.networks.laptop;" parent="1" vertex="1">
          <mxGeometry x="1912.5" y="550" width="100" height="55" as="geometry" />
        </mxCell>
        <mxCell id="7pducZbgJA7FLwBWW6aa-29" value="" style="html=1;strokeWidth=1;shadow=0;dashed=0;shape=mxgraph.ios7.misc.vpn;fillColor=#007AFF;strokeColor=none;buttonText=;strokeColor2=#222222;fontColor=#222222;fontSize=8;verticalLabelPosition=bottom;verticalAlign=top;align=center;sketch=0;" parent="1" vertex="1">
          <mxGeometry x="665" y="451.5" width="50" height="40" as="geometry" />
        </mxCell>
        <mxCell id="7pducZbgJA7FLwBWW6aa-30" value="" style="endArrow=classic;html=1;rounded=0;" parent="1" edge="1">
          <mxGeometry width="50" height="50" relative="1" as="geometry">
            <mxPoint x="1980" y="560" as="sourcePoint" />
            <mxPoint x="2030" y="510" as="targetPoint" />
          </mxGeometry>
        </mxCell>
        <mxCell id="7pducZbgJA7FLwBWW6aa-31" value="" style="endArrow=classic;html=1;rounded=0;" parent="1" edge="1">
          <mxGeometry width="50" height="50" relative="1" as="geometry">
            <mxPoint x="1970" y="1000" as="sourcePoint" />
            <mxPoint x="2020" y="940" as="targetPoint" />
          </mxGeometry>
        </mxCell>
        <mxCell id="7pducZbgJA7FLwBWW6aa-35" value="" style="group" parent="1" vertex="1" connectable="0">
          <mxGeometry x="1916" y="428" width="80" height="39.5" as="geometry" />
        </mxCell>
        <UserObject label="&lt;font style=&quot;font-size: 18px;&quot;&gt;0.0.0.0/0&lt;/font&gt;" placeholders="1" name="Variable" id="7pducZbgJA7FLwBWW6aa-33">
          <mxCell style="text;html=1;strokeColor=none;fillColor=none;align=center;verticalAlign=middle;whiteSpace=wrap;overflow=hidden;" parent="7pducZbgJA7FLwBWW6aa-35" vertex="1">
            <mxGeometry y="10.5" width="80" height="29" as="geometry" />
          </mxCell>
        </UserObject>
        <mxCell id="7pducZbgJA7FLwBWW6aa-34" value="" style="endArrow=classic;html=1;rounded=0;" parent="7pducZbgJA7FLwBWW6aa-35" edge="1">
          <mxGeometry width="50" height="50" relative="1" as="geometry">
            <mxPoint x="80" as="sourcePoint" />
            <mxPoint as="targetPoint" />
          </mxGeometry>
        </mxCell>
        <mxCell id="7pducZbgJA7FLwBWW6aa-37" value="" style="group" parent="1" vertex="1" connectable="0">
          <mxGeometry x="1910" y="860" width="80" height="39.5" as="geometry" />
        </mxCell>
        <UserObject label="&lt;font style=&quot;font-size: 18px;&quot;&gt;0.0.0.0/0&lt;/font&gt;" placeholders="1" name="Variable" id="7pducZbgJA7FLwBWW6aa-38">
          <mxCell style="text;html=1;strokeColor=none;fillColor=none;align=center;verticalAlign=middle;whiteSpace=wrap;overflow=hidden;" parent="7pducZbgJA7FLwBWW6aa-37" vertex="1">
            <mxGeometry y="10.5" width="80" height="29" as="geometry" />
          </mxCell>
        </UserObject>
        <mxCell id="7pducZbgJA7FLwBWW6aa-39" value="" style="endArrow=classic;html=1;rounded=0;" parent="7pducZbgJA7FLwBWW6aa-37" edge="1">
          <mxGeometry width="50" height="50" relative="1" as="geometry">
            <mxPoint x="80" as="sourcePoint" />
            <mxPoint as="targetPoint" />
          </mxGeometry>
        </mxCell>
        <mxCell id="7pducZbgJA7FLwBWW6aa-45" value="" style="endArrow=none;html=1;rounded=0;exitX=1;exitY=0.5;exitDx=0;exitDy=0;exitPerimeter=0;entryX=0.032;entryY=0.427;entryDx=0;entryDy=0;entryPerimeter=0;" parent="7pducZbgJA7FLwBWW6aa-37" edge="1">
          <mxGeometry width="50" height="50" relative="1" as="geometry">
            <mxPoint x="-18.5" y="10.5" as="sourcePoint" />
            <mxPoint x="98.5" y="10.5" as="targetPoint" />
          </mxGeometry>
        </mxCell>
        <mxCell id="7pducZbgJA7FLwBWW6aa-41" value="&lt;font style=&quot;font-size: 18px;&quot;&gt;&lt;b&gt;&lt;font style=&quot;forced-color-adjust: none; color: rgb(104, 129, 179); font-family: Helvetica; font-style: normal; font-variant-ligatures: normal; font-variant-caps: normal; letter-spacing: normal; orphans: 2; text-indent: 0px; text-transform: none; widows: 2; word-spacing: 0px; -webkit-text-stroke-width: 0px; white-space: nowrap; text-decoration-thickness: initial; text-decoration-style: initial; text-decoration-color: initial;&quot;&gt;Internet&amp;nbsp;&lt;/font&gt;&lt;/b&gt;&lt;/font&gt;&lt;div&gt;&lt;font style=&quot;font-size: 18px;&quot;&gt;&lt;b&gt;&lt;font style=&quot;forced-color-adjust: none; color: rgb(104, 129, 179); font-family: Helvetica; font-style: normal; font-variant-ligatures: normal; font-variant-caps: normal; letter-spacing: normal; orphans: 2; text-indent: 0px; text-transform: none; widows: 2; word-spacing: 0px; -webkit-text-stroke-width: 0px; white-space: nowrap; text-decoration-thickness: initial; text-decoration-style: initial; text-decoration-color: initial;&quot;&gt;Outside of CN&lt;/font&gt;&lt;/b&gt;&lt;/font&gt;&lt;/div&gt;" style="text;whiteSpace=wrap;html=1;align=center;" parent="1" vertex="1">
          <mxGeometry x="1080" y="986" width="160" height="60" as="geometry" />
        </mxCell>
        <mxCell id="7pducZbgJA7FLwBWW6aa-44" value="" style="endArrow=none;html=1;rounded=0;exitX=1;exitY=0.5;exitDx=0;exitDy=0;exitPerimeter=0;entryX=0.032;entryY=0.427;entryDx=0;entryDy=0;entryPerimeter=0;" parent="1" source="7pducZbgJA7FLwBWW6aa-2" target="7pducZbgJA7FLwBWW6aa-3" edge="1">
          <mxGeometry width="50" height="50" relative="1" as="geometry">
            <mxPoint x="2290" y="560" as="sourcePoint" />
            <mxPoint x="2340" y="510" as="targetPoint" />
          </mxGeometry>
        </mxCell>
        <UserObject label="&lt;font style=&quot;font-size: 16px;&quot;&gt;10.64.0.0/16&lt;/font&gt;" placeholders="1" name="Variable" id="7pducZbgJA7FLwBWW6aa-46">
          <mxCell style="text;html=1;strokeColor=none;fillColor=none;align=center;verticalAlign=middle;whiteSpace=wrap;overflow=hidden;" parent="1" vertex="1">
            <mxGeometry x="1916" y="360" width="80" height="20" as="geometry" />
          </mxCell>
        </UserObject>
        <UserObject label="&lt;font style=&quot;font-size: 16px;&quot;&gt;10.66.0.0/16&lt;/font&gt;" placeholders="1" name="Variable" id="7pducZbgJA7FLwBWW6aa-47">
          <mxCell style="text;html=1;strokeColor=none;fillColor=none;align=center;verticalAlign=middle;whiteSpace=wrap;overflow=hidden;" parent="1" vertex="1">
            <mxGeometry x="1916" y="800" width="80" height="20" as="geometry" />
          </mxCell>
        </UserObject>
        <UserObject label="&lt;font style=&quot;font-size: 14px;&quot;&gt;10.52.0.0/16&lt;/font&gt;" placeholders="1" name="Variable" id="7pducZbgJA7FLwBWW6aa-48">
          <mxCell style="text;html=1;strokeColor=none;fillColor=none;align=center;verticalAlign=middle;whiteSpace=wrap;overflow=hidden;" parent="1" vertex="1">
            <mxGeometry x="261" y="360" width="80" height="20" as="geometry" />
          </mxCell>
        </UserObject>
        <mxCell id="7pducZbgJA7FLwBWW6aa-49" value="" style="endArrow=classic;html=1;rounded=0;entryX=0.67;entryY=0.491;entryDx=0;entryDy=0;entryPerimeter=0;" parent="1" edge="1">
          <mxGeometry width="50" height="50" relative="1" as="geometry">
            <mxPoint x="248" y="460" as="sourcePoint" />
            <mxPoint x="407.74000000000024" y="459.93499999999995" as="targetPoint" />
          </mxGeometry>
        </mxCell>
        <mxCell id="7pducZbgJA7FLwBWW6aa-50" value="" style="group" parent="1" vertex="1" connectable="0">
          <mxGeometry x="770" y="480" width="90" height="39.5" as="geometry" />
        </mxCell>
        <mxCell id="7pducZbgJA7FLwBWW6aa-52" value="" style="endArrow=classic;html=1;rounded=0;strokeColor=#FF3333;strokeWidth=2;" parent="7pducZbgJA7FLwBWW6aa-50" edge="1">
          <mxGeometry width="50" height="50" relative="1" as="geometry">
            <mxPoint x="90" as="sourcePoint" />
            <mxPoint as="targetPoint" />
          </mxGeometry>
        </mxCell>
        <UserObject label="&lt;font style=&quot;font-size: 18px; color: rgb(255, 51, 51);&quot;&gt;10.0.0.0/8&lt;/font&gt;" placeholders="1" name="Variable" id="7pducZbgJA7FLwBWW6aa-51">
          <mxCell style="text;html=1;strokeColor=none;fillColor=none;align=center;verticalAlign=middle;whiteSpace=wrap;overflow=hidden;" parent="7pducZbgJA7FLwBWW6aa-50" vertex="1">
            <mxGeometry y="5.25" width="90" height="29" as="geometry" />
          </mxCell>
        </UserObject>
      </root>
    </mxGraphModel>
  </diagram>
</mxfile>
